<?xml version="1.0" standalone="no"?>
<!DOCTYPE svg PUBLIC "-//W3C//DTD SVG 20010904//EN"
 "http://www.w3.org/TR/2001/REC-SVG-20010904/DTD/svg10.dtd">
<svg version="1.0" xmlns="http://www.w3.org/2000/svg"
 width="276.000000pt" height="276.000000pt" viewBox="0 0 276.000000 276.000000"
 preserveAspectRatio="xMidYMid meet">
<metadata>
Created by potrace 1.11, written by Peter Selinger 2001-2013
</metadata>
<g transform="translate(0.000000,276.000000) scale(0.100000,-0.100000)"
fill="#000000" stroke="none">
<path d="M1337 2663 c-4 -3 1 -15 10 -26 17 -19 17 -20 -4 -8 -14 7 -24 8 -28
1 -3 -5 -1 -10 6 -10 7 0 10 -2 8 -5 -7 -6 -72 18 -81 30 -5 6 -8 5 -8 -2 0
-7 -9 -13 -19 -13 -11 0 -23 -4 -26 -10 -3 -5 -11 -10 -17 -10 -7 0 -6 5 1 14
10 12 8 13 -8 9 -12 -3 -21 -9 -21 -13 0 -13 -31 -5 -41 11 -13 20 -11 2 2
-24 12 -22 12 -22 -10 -3 -11 11 -21 15 -21 10 0 -5 -4 -3 -8 4 -7 10 -12 8
-25 -6 -14 -15 -14 -19 -2 -19 8 0 12 4 9 9 -3 4 0 8 6 8 7 0 10 -6 7 -12 -2
-7 -10 -12 -17 -10 -8 2 -10 -3 -6 -15 6 -15 5 -15 -12 2 -11 11 -17 24 -14
29 3 5 0 6 -7 2 -9 -6 -9 -11 -1 -21 9 -11 7 -12 -11 -8 -14 4 -20 2 -16 -4 7
-11 -26 -10 -55 2 -11 4 -18 3 -18 -5 0 -6 5 -8 10 -5 6 3 10 1 10 -4 0 -15
-13 -14 -29 2 -11 10 -13 10 -7 0 4 -7 2 -13 -4 -13 -6 0 -8 -4 -5 -10 3 -5
-3 -10 -14 -10 -12 0 -21 -6 -21 -12 0 -9 -4 -8 -10 2 -8 12 -10 12 -10 1 0
-11 -3 -11 -15 -1 -12 10 -14 8 -10 -9 2 -14 -1 -18 -11 -14 -7 3 -11 9 -8 14
3 5 -1 6 -9 3 -10 -3 -13 -13 -9 -27 5 -20 4 -21 -13 -7 -17 14 -18 13 -12 -2
3 -10 3 -18 -1 -19 -4 0 -15 -2 -25 -4 -9 -2 -15 0 -12 4 2 4 -2 8 -10 8 -11
0 -12 -5 -3 -21 9 -17 8 -19 -3 -8 -19 18 -31 15 -24 -7 6 -20 -8 -23 -32 -8
-6 4 -15 2 -19 -4 -4 -8 -3 -9 4 -5 7 4 12 3 12 -2 0 -17 -13 -22 -28 -9 -13
9 -14 9 -8 0 4 -8 2 -13 -5 -13 -9 0 -9 -3 0 -14 9 -11 9 -16 0 -22 -7 -4 -9
-3 -6 3 4 6 0 13 -8 17 -8 3 -14 0 -12 -6 1 -6 -4 -13 -12 -16 -9 -3 -11 0 -6
8 5 9 4 11 -4 6 -6 -4 -9 -12 -6 -17 4 -5 0 -9 -8 -9 -8 0 -18 -7 -21 -16 -3
-8 -11 -12 -17 -8 -8 5 -8 1 -1 -13 9 -15 8 -20 -3 -20 -8 0 -12 4 -10 8 4 6
-3 6 -34 0 -2 -1 3 -9 10 -18 12 -14 12 -16 -2 -11 -9 3 -22 2 -30 -4 -11 -8
-10 -9 4 -4 22 7 22 -7 0 -25 -11 -10 -14 -10 -9 -1 4 7 2 12 -8 12 -21 0 -31
-19 -17 -33 9 -9 10 -7 5 8 -7 17 -6 18 8 5 19 -18 18 -19 -12 -25 -31 -6 -37
-14 -20 -26 11 -7 7 -8 -12 -3 -18 4 -28 2 -28 -6 0 -6 5 -8 12 -4 7 5 8 3 3
-5 -4 -7 -17 -10 -29 -7 -19 5 -20 4 -3 -8 21 -16 22 -30 1 -22 -10 4 -13 2
-8 -6 5 -8 2 -9 -11 -4 -16 6 -16 4 -4 -11 12 -15 12 -16 -3 -10 -10 3 -20 1
-24 -5 -4 -6 -3 -8 3 -5 6 4 13 1 16 -7 4 -10 -1 -13 -16 -10 -12 2 -16 2 -9
-2 18 -9 15 -27 -4 -20 -15 6 -15 4 -3 -10 13 -16 12 -16 -9 -5 -23 12 -23 12
-11 -11 12 -22 11 -22 -7 -8 -10 8 -16 10 -12 6 4 -5 2 -16 -5 -24 -9 -13 -9
-14 1 -8 6 4 12 3 12 -2 0 -10 -29 -26 -42 -24 -5 1 -8 -3 -8 -8 0 -12 13 -13
24 -3 14 14 35 11 29 -4 -5 -12 -7 -12 -14 -1 -5 7 -9 10 -10 6 -1 -5 -2 -11
-3 -15 -4 -20 -19 -34 -33 -29 -9 4 -11 2 -6 -7 14 -23 12 -39 -5 -33 -13 5
-12 2 2 -9 19 -14 19 -15 2 -15 -15 0 -16 -3 -6 -15 11 -13 10 -14 -6 -8 -16
6 -17 5 -6 -9 10 -13 10 -18 1 -24 -7 -4 -9 -3 -6 3 4 6 -1 14 -10 17 -10 4
-14 4 -10 0 4 -4 2 -13 -4 -20 -7 -8 -6 -14 2 -20 8 -5 9 -3 4 6 -5 9 -4 11 3
6 17 -10 15 -15 -11 -26 -16 -6 -18 -9 -5 -9 11 -1 15 -6 12 -16 -4 -8 -9 -13
-13 -11 -4 3 -8 -5 -8 -17 -2 -17 0 -18 7 -7 7 11 9 10 7 -8 -1 -13 -6 -21
-14 -18 -20 8 -30 -17 -35 -89 -1 -20 3 -29 11 -27 7 1 10 -2 6 -8 -3 -6 -11
-8 -16 -5 -5 4 -9 1 -9 -4 0 -6 4 -11 8 -11 5 0 9 -13 9 -30 0 -16 -4 -30 -9
-30 -5 0 -6 6 -2 13 4 6 3 8 -1 4 -12 -11 -15 -38 -4 -31 6 3 7 -7 4 -26 -4
-20 -2 -29 5 -25 6 3 7 0 4 -9 -3 -9 -10 -13 -15 -10 -5 3 -6 -2 -3 -10 3 -9
9 -14 13 -11 4 2 8 -2 8 -9 0 -8 -5 -12 -12 -10 -6 3 -11 -4 -11 -15 0 -11 4
-18 7 -15 4 2 10 0 14 -6 3 -5 0 -10 -7 -10 -11 0 -10 -2 0 -9 11 -6 10 -10
-3 -15 -12 -4 -14 -10 -7 -19 5 -6 8 -20 7 -29 -2 -9 3 -19 11 -22 7 -3 11
-12 8 -21 -3 -8 -9 -13 -13 -10 -4 2 -8 -2 -8 -9 0 -7 6 -13 13 -13 7 0 11 4
9 8 -3 3 3 13 13 20 15 12 16 12 5 -2 -7 -9 -9 -19 -5 -23 4 -4 8 -12 8 -17 1
-5 2 -10 4 -11 5 -7 6 -47 0 -43 -3 2 -6 -5 -6 -15 0 -15 3 -17 15 -7 12 10
13 9 4 -8 -11 -21 -7 -48 6 -41 4 3 8 -5 8 -17 2 -17 0 -19 -7 -7 -8 11 -9 9
-7 -9 3 -17 11 -25 25 -26 12 -1 25 -5 29 -10 5 -4 0 -5 -9 -2 -10 3 -20 2
-23 -3 -4 -6 4 -10 16 -10 22 0 22 0 3 -14 -18 -14 -18 -15 -1 -21 12 -5 16
-14 11 -29 -6 -21 -6 -21 11 -1 9 11 13 14 10 7 -4 -8 5 -26 21 -44 16 -17 23
-28 17 -24 -7 4 -13 2 -13 -3 0 -6 5 -11 11 -11 8 0 8 -4 0 -14 -16 -19 4 -32
24 -16 11 9 12 7 8 -9 -3 -12 -10 -18 -16 -14 -6 3 -7 1 -3 -6 4 -6 11 -9 16
-6 4 3 14 -3 21 -12 12 -15 12 -16 -6 -10 -18 7 -19 6 -3 -6 10 -8 14 -18 10
-22 -4 -5 0 -4 8 1 21 12 41 14 34 3 -3 -5 -10 -7 -15 -4 -5 4 -9 -1 -9 -10 0
-12 6 -15 23 -10 22 7 22 7 2 -8 -19 -15 -19 -16 8 -13 22 3 25 1 16 -10 -9
-11 -8 -14 1 -14 10 0 10 -3 1 -14 -10 -12 -8 -13 9 -9 22 6 51 -22 44 -42 -5
-11 52 -51 67 -47 5 1 8 -1 8 -5 -3 -18 2 -34 9 -30 4 3 13 -1 20 -9 10 -10
10 -14 1 -14 -7 0 -10 -3 -7 -6 4 -3 15 -1 26 5 17 9 19 7 15 -17 -3 -23 -2
-24 6 -7 8 17 10 18 10 3 1 -10 6 -18 12 -18 5 0 8 -4 4 -9 -3 -5 0 -13 6 -17
8 -4 9 -3 5 4 -4 7 -2 12 3 12 6 0 11 -7 11 -15 0 -8 4 -15 10 -15 5 0 7 8 4
18 -5 16 -5 16 6 -1 6 -9 16 -14 22 -11 8 5 9 1 5 -10 -4 -9 -3 -14 2 -11 5 3
11 -3 13 -12 2 -12 13 -18 38 -18 25 -1 35 -6 34 -16 -1 -11 6 -15 25 -12 22
4 24 3 9 -7 -10 -6 -18 -16 -18 -23 0 -8 3 -9 8 -1 4 6 15 13 24 17 13 4 15 2
11 -10 -5 -13 -3 -14 17 -3 15 8 20 8 16 1 -4 -6 -2 -11 3 -11 6 0 11 5 11 10
0 6 8 5 19 -2 11 -7 17 -16 14 -21 -3 -5 -9 -4 -13 3 -6 10 -12 10 -26 0 -17
-10 -17 -11 -1 -6 11 3 20 0 23 -9 4 -8 10 -15 16 -15 5 0 6 4 3 10 -3 5 -1
10 4 10 6 0 11 -4 11 -8 0 -4 13 -13 29 -19 26 -9 29 -9 24 6 -4 14 -3 14 10
-1 11 -14 16 -15 27 -5 10 9 11 9 6 0 -10 -17 25 -17 44 0 8 6 7 2 -3 -9 -17
-21 -17 -22 8 -28 14 -4 30 -4 35 -1 6 4 10 0 10 -7 0 -9 3 -9 10 2 5 8 10 10
10 4 0 -7 17 -12 40 -12 22 -1 38 3 36 7 -3 4 1 8 9 8 8 0 12 -3 10 -7 -2 -4
2 -16 10 -26 13 -18 14 -18 10 6 -4 24 -4 24 10 6 13 -17 15 -18 15 -3 0 9 4
17 10 17 5 0 7 -7 4 -15 -4 -8 -1 -15 4 -15 6 0 13 8 15 17 4 17 5 17 6 1 0
-10 6 -18 12 -18 5 0 8 -4 4 -10 -3 -5 -13 -7 -23 -4 -14 5 -15 4 -2 -5 16
-11 35 0 35 21 0 6 6 13 13 16 6 2 12 -1 12 -8 0 -6 5 -8 12 -4 7 4 8 3 4 -4
-4 -7 -2 -12 5 -12 7 0 9 -3 6 -6 -4 -4 -13 -2 -21 5 -10 9 -15 9 -19 -1 -3
-10 18 -13 93 -13 54 0 98 2 98 5 -1 19 4 23 12 10 8 -13 10 -13 10 -1 0 11 4
10 16 -5 8 -10 13 -13 9 -6 -3 6 1 15 9 18 9 3 16 11 16 16 0 7 -5 6 -13 -1
-8 -6 -23 -9 -35 -6 -12 2 -24 0 -27 -6 -4 -5 -17 -7 -30 -5 -14 3 -27 0 -30
-5 -4 -5 -11 -9 -16 -9 -6 0 -7 6 -3 13 5 7 1 7 -12 -3 -10 -8 -16 -10 -12 -6
4 5 2 16 -5 24 -10 13 -9 14 3 7 8 -5 34 -10 58 -11 38 -1 41 0 30 15 -11 14
-11 14 4 3 11 -9 18 -10 23 -2 5 8 11 8 19 1 7 -6 15 -8 18 -6 3 3 15 7 26 10
14 2 19 -1 16 -9 -3 -7 2 -13 11 -13 9 0 14 5 12 11 -3 7 9 10 34 8 28 -3 39
0 39 9 0 12 2 12 9 0 13 -21 62 -6 55 17 -3 9 2 6 10 -8 14 -23 15 -23 17 -5
1 11 1 23 1 26 -1 4 8 4 20 1 21 -5 21 -6 2 -13 -14 -5 -15 -8 -3 -8 8 -1 25
8 37 19 12 12 22 16 22 10 0 -6 5 -8 10 -5 6 4 8 10 5 15 -3 5 0 12 6 16 7 4
9 3 6 -3 -4 -6 0 -13 8 -17 8 -3 15 -1 15 4 0 6 5 10 11 10 5 0 7 -6 3 -12 -5
-9 -2 -8 10 1 9 8 15 20 12 27 -3 8 -2 13 2 13 18 -3 33 2 28 9 -3 5 2 9 11 9
13 0 11 -4 -6 -18 -21 -17 -21 -18 -2 -16 11 0 18 4 16 7 -1 3 3 11 11 18 9 8
14 9 14 2 0 -6 5 -8 10 -5 6 4 7 12 3 18 -5 9 -3 9 8 0 9 -8 20 -9 29 -3 8 6
10 10 4 10 -6 0 -11 7 -11 15 0 12 3 12 15 3 11 -10 17 -8 30 10 11 15 25 20
40 17 20 -3 21 -2 11 17 -6 12 -7 18 -1 14 5 -3 13 1 16 9 4 12 10 14 25 5 21
-11 37 1 26 19 -3 5 -1 12 4 15 5 4 13 1 17 -5 5 -8 3 -9 -6 -4 -9 5 -11 4 -6
-4 10 -15 27 -4 20 13 -5 13 10 29 31 32 6 0 15 2 22 2 7 1 10 12 8 24 -4 23
-4 23 12 3 15 -20 15 -20 11 0 -4 16 0 21 15 22 11 1 25 7 31 14 6 7 7 10 1 6
-6 -3 -11 2 -11 12 0 10 6 18 13 18 7 0 10 -4 7 -8 -2 -4 0 -10 5 -13 5 -4 8
5 6 19 -3 28 10 42 21 24 4 -8 3 -9 -4 -5 -18 11 -14 0 6 -15 9 -7 14 -9 10
-5 -4 5 -2 16 5 24 9 13 9 14 0 8 -8 -4 -13 -1 -13 8 0 10 6 13 17 9 11 -4 14
-3 9 5 -4 7 -2 13 3 13 6 1 17 2 24 3 6 1 11 7 10 13 -1 6 4 17 12 23 8 7 15
18 15 24 0 6 -5 3 -11 -7 -5 -9 -14 -17 -20 -17 -5 0 -1 9 10 21 12 13 24 18
33 13 10 -6 10 -4 -1 9 -12 15 -12 17 2 12 8 -4 18 -2 22 4 3 6 1 11 -4 11 -6
0 -1 11 11 25 11 13 25 22 30 19 4 -3 8 -1 8 5 0 19 -19 21 -29 4 -6 -10 -11
-13 -11 -7 0 17 21 33 37 27 13 -5 13 -2 4 15 -10 19 -9 21 6 15 14 -5 15 -3
6 7 -16 17 -5 40 18 40 10 0 19 3 20 8 0 4 2 17 5 30 3 16 0 21 -8 16 -7 -4
-8 -3 -4 4 4 7 14 12 22 12 8 0 12 5 9 10 -4 6 -12 7 -18 3 -8 -5 -8 -2 0 9 7
8 9 19 5 23 -4 5 -1 5 6 1 7 -4 10 -12 7 -17 -3 -5 1 -6 10 -3 13 5 12 9 -6
25 l-21 18 31 -4 c32 -4 43 8 15 19 -10 4 -13 2 -8 -6 4 -7 3 -8 -4 -4 -17 10
-15 29 3 23 8 -4 17 -2 20 3 3 4 -1 10 -7 13 -10 3 -10 8 1 18 12 12 13 12 6
0 -5 -10 -4 -12 4 -7 6 4 9 11 6 16 -3 5 -1 18 5 29 7 14 7 22 -2 27 -6 4 -8
3 -5 -2 3 -6 2 -16 -2 -23 -7 -10 -9 -10 -14 2 -6 15 30 56 48 56 5 0 11 5 13
13 2 9 0 8 -7 -2 -6 -8 -11 -11 -11 -6 0 5 -6 3 -14 -3 -12 -10 -14 -8 -12 16
2 15 -2 31 -8 35 -8 5 -7 8 2 8 7 0 10 5 6 12 -5 7 -3 8 5 4 8 -5 11 -3 9 6
-2 7 1 13 7 13 5 0 10 -8 10 -17 1 -9 -2 -15 -6 -12 -4 2 -6 -5 -4 -16 3 -13
0 -18 -7 -14 -7 4 -8 2 -4 -5 17 -27 31 9 31 76 0 64 -1 68 -22 67 -13 -1 -20
2 -18 7 3 4 14 6 26 4 19 -4 20 0 17 129 -2 91 -6 132 -14 129 -6 -2 -11 -10
-11 -18 0 -8 5 -11 11 -7 6 3 3 -6 -6 -20 -11 -16 -13 -29 -7 -32 5 -2 4 -3
-3 -2 -7 2 -13 7 -13 12 0 5 -4 16 -10 24 -7 13 -6 13 8 2 14 -12 16 -11 14 7
-1 12 -8 21 -17 22 -10 0 -7 4 8 11 12 6 22 15 22 20 0 5 -10 3 -22 -3 -20
-11 -22 -11 -10 3 9 11 10 18 2 23 -6 3 -8 10 -5 15 3 5 1 11 -3 14 -9 6 -10
35 0 51 7 13 4 47 -6 63 -6 10 -11 10 -22 1 -12 -10 -13 -9 -8 6 5 11 4 16 -3
12 -5 -3 -10 0 -10 8 0 11 4 12 14 3 7 -6 16 -8 20 -4 3 3 1 6 -6 6 -7 0 -11
7 -8 14 4 11 1 13 -10 9 -13 -5 -15 -1 -11 21 3 14 1 29 -5 33 -5 3 -7 1 -3
-5 3 -6 2 -14 -4 -17 -6 -4 -10 -3 -9 2 4 25 -2 44 -13 37 -10 -6 -10 -4 0 7
6 7 12 18 12 23 0 6 -4 6 -8 -1 -6 -9 -11 -6 -21 8 -7 12 -8 18 -3 15 6 -3 9
0 8 6 -3 22 -17 39 -27 33 -5 -4 -9 -1 -9 5 0 6 -4 8 -10 5 -5 -3 -10 -1 -10
5 0 6 7 10 16 8 10 -2 18 3 20 10 1 7 0 8 -3 2 -3 -7 -9 -7 -16 -1 -11 9 -18
11 -32 11 -3 0 -1 10 6 21 8 15 8 19 0 15 -6 -4 -11 -2 -11 4 0 6 -6 10 -14 8
-8 -2 -14 0 -13 3 1 3 -5 14 -13 24 -8 11 -10 16 -4 12 6 -3 11 0 11 7 0 8 -6
12 -13 9 -6 -2 -15 1 -20 8 -4 7 -3 10 4 5 6 -3 13 -2 16 3 4 5 -8 7 -26 5
-27 -4 -30 -3 -15 6 9 6 15 16 11 21 -4 6 -11 6 -19 -1 -11 -9 -12 -6 -8 12 4
19 3 20 -7 8 -10 -12 -11 -11 -7 8 5 19 3 21 -9 11 -11 -9 -14 -7 -15 12 -1
13 -1 28 0 32 1 5 -2 6 -7 3 -5 -3 -20 6 -35 19 -14 14 -29 21 -32 15 -9 -15
-33 12 -29 33 3 16 -10 21 -53 20 -6 0 -9 6 -5 15 4 11 1 14 -12 9 -10 -4 -15
-3 -11 3 3 6 1 10 -6 10 -8 0 -8 4 -1 13 8 9 4 12 -14 12 -13 0 -24 -4 -24 -9
0 -5 -3 -6 -6 -3 -4 4 -1 13 5 21 10 12 9 13 -9 9 -14 -4 -20 -1 -18 7 2 7 -4
15 -12 17 -12 4 -12 3 -1 -5 8 -6 9 -12 3 -16 -6 -3 -13 3 -17 14 -6 20 -16
24 -45 20 -8 -1 -12 1 -8 6 4 4 3 13 -3 21 -10 11 -15 11 -27 1 -13 -10 -14
-10 -8 0 5 8 0 12 -14 12 -14 0 -19 4 -14 13 5 8 2 7 -10 -2 -15 -12 -19 -12
-32 2 -8 9 -9 12 -2 7 7 -6 16 -10 21 -10 5 0 -2 9 -17 21 -14 11 -30 17 -36
14 -5 -3 -10 0 -10 7 0 10 -3 9 -11 -2 -8 -12 -10 -10 -5 10 l5 25 -20 -25
c-11 -14 -18 -19 -17 -11 2 7 -3 16 -11 19 -9 3 -11 0 -6 -9 4 -8 -3 -2 -16
12 -23 26 -23 26 -39 6 -13 -16 -19 -17 -25 -7 -5 9 -4 11 3 6 7 -4 12 0 12
10 0 10 -3 14 -7 11 -3 -4 -12 -2 -20 4 -7 6 -13 8 -13 4 0 -4 -7 -1 -16 6
-14 11 -18 10 -30 -6 -13 -18 -19 -10 -15 17 0 4 -6 5 -14 2 -8 -4 -15 -11
-15 -17 0 -6 -7 -2 -16 9 -11 13 -14 14 -11 3 3 -9 -1 -16 -9 -16 -7 0 -11 4
-8 9 3 4 -18 8 -46 8 -38 0 -49 -3 -44 -12 4 -7 -2 -4 -14 6 -12 11 -22 14
-22 8 0 -6 -7 -9 -16 -5 -9 3 -19 0 -24 -6 -5 -9 -9 -8 -13 4 -5 10 -3 14 5 9
6 -4 8 -3 4 4 -3 6 -2 13 4 17 5 3 10 1 10 -6 0 -7 3 -10 6 -6 3 3 3 11 -1 17
-5 8 -13 6 -27 -7 -11 -10 -22 -16 -25 -15 -3 2 -8 0 -11 -4 -4 -4 -2 -4 4 -1
6 3 11 0 11 -8 0 -9 -8 -7 -28 8 -16 11 -26 24 -23 29 6 10 0 11 -9 1z m-83
-41 c3 -5 -1 -9 -9 -9 -8 0 -12 4 -9 9 3 4 7 8 9 8 2 0 6 -4 9 -8z m461 -12
c3 -6 -1 -7 -9 -4 -18 7 -21 14 -7 14 6 0 13 -4 16 -10z m22 -22 c-3 -8 -6 -5
-6 6 -1 11 2 17 5 13 3 -3 4 -12 1 -19z m68 -7 c3 -5 1 -12 -5 -16 -5 -3 -10
1 -10 9 0 18 6 21 15 7z m125 -35 c0 -3 -4 -8 -10 -11 -5 -3 -10 -1 -10 4 0 6
5 11 10 11 6 0 10 -2 10 -4z m113 -71 c-7 -21 -12 -19 -10 4 0 11 5 18 9 15 4
-3 5 -11 1 -19z m42 -15 c3 -5 1 -10 -4 -10 -6 0 -11 5 -11 10 0 6 2 10 4 10
3 0 8 -4 11 -10z m278 -198 c9 -8 17 -22 16 -31 0 -14 -1 -14 -6 -1 -4 8 -18
26 -32 39 -27 25 -9 19 22 -7z m329 -510 c-10 -3 -10 -7 0 -20 12 -15 11 -15
-4 -4 -18 14 -13 47 5 35 8 -5 7 -8 -1 -11z m-1947 -56 c-2 -19 1 -23 13 -19
12 5 14 2 9 -12 -7 -16 -5 -16 10 -4 15 12 16 12 10 -3 -4 -13 -2 -15 10 -11
11 4 14 2 9 -5 -4 -7 -1 -12 10 -12 14 0 15 -2 3 -17 -10 -11 -10 -14 -1 -9 6
4 12 3 12 -2 0 -6 8 -9 17 -8 10 0 19 -9 23 -24 5 -20 11 -24 34 -22 19 3 26
0 21 -7 -3 -6 -11 -9 -16 -6 -5 4 -6 -2 -2 -11 4 -11 8 -13 11 -6 3 9 7 8 17
-1 7 -7 10 -16 7 -21 -3 -5 2 -7 11 -3 11 4 17 1 17 -8 0 -9 9 -15 23 -15 17
0 19 -2 7 -9 -8 -6 -18 -7 -24 -4 -5 4 -6 1 -1 -7 4 -7 10 -29 12 -49 4 -34 3
-35 -12 -16 -8 11 -15 16 -14 10 3 -24 -2 -27 -16 -9 -13 16 -14 16 -9 1 5
-13 2 -16 -12 -10 -12 4 -15 3 -10 -5 5 -8 1 -10 -10 -5 -13 5 -15 3 -9 -8 5
-8 1 -7 -12 4 -25 22 -40 22 -22 0 13 -15 12 -15 -9 -2 -20 12 -24 12 -32 -1
-5 -8 -10 -10 -10 -5 0 6 5 16 10 21 7 7 6 11 -5 11 -8 0 -15 -5 -15 -11 -1
-6 -7 0 -16 14 l-15 25 5 -25 c3 -14 3 -19 0 -12 -3 6 -10 10 -14 7 -5 -3 -7
4 -5 15 4 21 -21 41 -42 33 -7 -3 -10 5 -9 22 2 14 1 23 -2 21 -2 -3 -12 3
-21 12 -9 10 -12 13 -8 6 5 -7 3 -15 -4 -20 -7 -4 -9 -3 -6 3 4 6 0 16 -8 23
-15 13 -10 35 6 25 5 -4 9 -1 9 4 0 6 -4 11 -10 11 -5 0 -6 7 -3 17 5 12 3 14
-8 8 -11 -6 -12 -5 -1 6 17 19 15 29 -5 23 -17 -5 -17 -5 0 6 19 12 24 36 5
24 -6 -4 0 8 15 28 15 19 24 38 19 43 -4 5 -1 5 6 1 10 -6 10 -11 1 -22 -7 -8
-7 -14 -1 -14 13 0 24 29 15 42 -3 6 -2 8 3 5 6 -3 16 -2 24 4 8 5 16 9 16 9
1 0 0 -11 -1 -24z m1327 -5 c-1 -7 2 -10 8 -6 6 3 8 11 5 16 -4 5 1 9 10 9 9
0 14 -4 10 -9 -3 -6 3 -14 12 -20 17 -10 17 -10 1 -11 -10 0 -18 -4 -18 -10 0
-5 3 -9 8 -9 22 4 31 -3 25 -18 -5 -12 -3 -14 8 -8 12 8 12 6 0 -8 -7 -9 -10
-17 -6 -17 4 0 3 -6 -2 -12 -11 -14 -14 -50 -3 -43 3 2 12 -5 19 -17 7 -11 8
-17 2 -13 -6 3 -11 1 -11 -4 0 -6 -5 -11 -11 -11 -8 0 -7 6 2 18 12 16 12 16
-5 0 -19 -16 -13 -44 6 -32 7 4 8 2 4 -4 -4 -6 -14 -8 -23 -5 -12 5 -14 3 -7
-8 12 -20 14 -40 3 -33 -5 3 -6 10 -3 16 5 7 2 8 -5 4 -7 -5 -10 -15 -7 -23 3
-8 2 -12 -3 -8 -5 3 -11 2 -14 -2 -2 -5 -2 -3 -1 4 2 7 -3 10 -12 6 -9 -3 -12
-12 -9 -24 7 -21 -5 -25 -21 -9 -8 8 -15 5 -25 -7 -13 -16 -12 -17 2 -5 14 10
18 10 23 -3 3 -9 2 -13 -4 -10 -5 3 -19 1 -30 -5 -16 -9 -22 -8 -26 5 -3 8
-10 12 -15 9 -5 -3 -7 -10 -4 -15 3 -5 -1 -6 -9 -3 -9 3 -14 9 -11 13 2 4 -2
8 -10 8 -8 0 -12 -4 -9 -9 10 -16 -35 -7 -46 10 -11 16 -11 16 -6 0 6 -20 -9
-34 -19 -18 -4 6 -9 8 -13 6 -13 -8 -45 23 -39 38 4 9 2 18 -4 21 -5 4 -7 11
-3 16 3 5 10 7 15 3 5 -3 7 -10 4 -15 -4 -5 -1 -9 5 -9 7 0 9 7 6 15 -19 46
-19 50 -3 30 16 -20 16 -20 13 0 -3 15 2 21 15 23 42 4 48 6 43 14 -3 5 -10 6
-15 3 -5 -4 -9 -1 -9 4 0 10 14 15 34 12 5 -1 6 5 3 13 -7 19 9 31 19 15 5 -8
3 -9 -6 -4 -9 5 -11 4 -6 -4 6 -9 12 -9 24 1 27 20 28 22 10 15 -9 -3 -19 0
-21 7 -4 10 1 12 15 8 18 -4 20 -2 16 16 -5 19 -4 20 14 11 16 -9 19 -8 13 2
-6 9 -3 10 10 5 16 -6 16 -4 4 11 -12 15 -12 16 4 10 9 -4 17 -2 17 4 0 6 8 8
17 5 10 -4 14 -4 10 0 -4 4 -1 14 6 23 10 14 10 14 -3 6 -10 -6 -9 -4 2 6 9 9
14 20 10 24 -4 4 0 5 8 3 8 -3 14 -11 12 -17z m-62 -31 c0 -5 -5 -10 -11 -10
-5 0 -7 5 -4 10 3 6 8 10 11 10 2 0 4 -4 4 -10z m-1910 -34 c14 -18 14 -18 -7
-6 -12 8 -19 18 -16 23 3 4 6 7 7 5 1 -2 8 -12 16 -22z m-10 -25 c0 -5 -7 -11
-14 -14 -10 -4 -13 -1 -9 9 6 15 23 19 23 5z m2072 -9 c-15 -5 -16 -33 -2 -50
5 -7 1 -4 -11 7 -18 16 -19 21 -8 39 7 11 18 18 23 15 6 -4 5 -8 -2 -11z
m-2079 -27 c-3 -9 -8 -14 -10 -11 -3 3 -2 9 2 15 9 16 15 13 8 -4z m2661 -83
c3 -5 -1 -9 -9 -9 -8 0 -12 4 -9 9 3 4 7 8 9 8 2 0 6 -4 9 -8z m-1734 -42 c5
8 8 4 7 -12 -2 -33 -22 -32 -23 1 -1 14 1 20 3 12 4 -10 7 -11 13 -1z m-260
-25 c0 -2 -9 -3 -19 -2 -11 0 -18 5 -15 9 4 6 34 0 34 -7z m1996 -15 c0 -12
-4 -16 -9 -11 -5 5 -6 14 -3 20 10 15 12 14 12 -9z m-2 -46 c3 -8 2 -12 -4 -9
-6 3 -10 10 -10 16 0 14 7 11 14 -7z m4 -85 c-3 -8 -7 -3 -11 10 -4 17 -3 21
5 13 5 -5 8 -16 6 -23z m-2104 4 c2 7 5 5 5 -5 1 -9 4 -18 9 -21 4 -2 0 -2 -8
0 -8 2 -4 -5 10 -16 14 -11 21 -23 17 -27 -4 -4 -7 -2 -7 4 0 7 -4 12 -9 12
-6 0 -9 -9 -8 -20 1 -12 7 -18 14 -16 7 3 10 -1 6 -9 -3 -8 -9 -13 -13 -10 -5
3 -11 1 -14 -4 -4 -5 -1 -13 5 -17 8 -5 9 -3 4 6 -5 9 -4 11 4 6 8 -5 9 -12 2
-20 -6 -7 -8 -25 -5 -41 4 -22 2 -26 -8 -19 -8 5 -6 2 4 -7 16 -15 16 -18 1
-23 -9 -4 -13 -9 -9 -13 3 -3 -4 -13 -16 -22 -26 -18 -51 -24 -42 -10 3 5 0 9
-5 9 -6 0 -11 -5 -11 -11 0 -8 -6 -7 -17 2 -9 8 -14 9 -10 2 8 -13 -18 -12
-30 2 -4 4 -2 5 6 0 10 -5 12 -4 7 4 -4 6 -12 9 -17 5 -6 -3 -17 -3 -26 0 -12
5 -13 9 -4 20 8 10 8 16 -4 26 -8 7 -12 16 -9 21 3 5 0 9 -7 9 -8 0 -8 4 1 15
7 8 9 15 5 15 -4 0 -2 6 4 13 6 8 7 18 3 22 -4 5 1 5 11 2 10 -4 16 -3 13 2
-3 5 1 11 8 14 8 3 20 15 26 26 9 18 8 20 -7 15 -15 -5 -15 -4 -3 4 8 6 19 7
25 2 6 -5 18 -2 30 7 16 12 16 14 3 10 -10 -3 -20 -1 -24 6 -4 7 -4 9 1 5 11
-10 47 11 40 22 -4 6 3 6 19 0 17 -6 26 -6 30 3z m1521 -3 c-4 -6 5 -7 24 -4
27 6 30 4 26 -15 -2 -12 0 -19 5 -16 4 3 11 -1 14 -7 3 -7 4 -2 1 12 -4 23 -3
23 8 -3 8 -20 17 -27 29 -24 10 3 17 2 15 -1 -2 -4 7 -18 20 -31 14 -14 23
-19 23 -11 0 7 3 11 6 8 3 -4 0 -16 -6 -28 -11 -20 -10 -21 12 -9 21 11 22 11
9 -4 -11 -14 -11 -20 0 -34 12 -15 12 -16 -4 -10 -11 4 -16 3 -12 -3 12 -20
14 -50 3 -56 -7 -4 -8 -2 -4 4 4 7 2 12 -5 12 -6 0 -9 -8 -6 -20 3 -11 0 -23
-5 -27 -7 -3 -8 -1 -4 5 4 7 2 12 -3 12 -6 0 -11 -8 -12 -17 0 -16 -1 -15 -8
2 -8 19 -8 19 -19 0 -8 -15 -12 -16 -12 -5 0 13 -1 13 -10 0 -9 -13 -11 -13
-20 0 -5 8 -13 16 -17 16 -27 5 -53 18 -54 28 -1 6 -3 18 -4 26 -1 8 -3 21 -4
29 -1 11 -4 11 -16 1 -9 -7 -18 -10 -22 -6 -3 3 -1 6 5 6 13 0 16 26 5 33 -10
5 5 1 32 -8 18 -6 18 -5 3 5 -9 6 -15 17 -12 24 3 8 1 17 -5 21 -7 4 -8 0 -4
-12 6 -15 5 -16 -9 -3 -9 8 -12 17 -7 18 5 2 6 9 2 15 -4 7 6 3 22 -7 30 -19
30 -19 12 1 -9 11 -14 23 -10 28 5 4 0 5 -9 2 -10 -3 -20 -1 -24 5 -4 7 -3 8
4 4 7 -4 12 -3 12 3 0 6 6 8 14 5 18 -7 30 12 15 22 -8 4 -9 3 -5 -4 5 -8 2
-10 -9 -6 -14 6 -14 8 2 20 22 16 26 17 18 4z m-2095 -30 c0 -5 -2 -10 -4 -10
-3 0 -8 5 -11 10 -3 6 -1 10 4 10 6 0 11 -4 11 -10z m1185 -30 c-3 -4 2 -11
10 -14 15 -5 23 -3 72 22 28 15 33 15 33 1 0 -5 -5 -7 -12 -3 -7 4 -8 3 -4 -5
5 -7 12 -9 19 -3 7 4 19 8 27 7 8 -1 25 2 38 7 15 5 21 4 17 -2 -3 -6 -2 -10
4 -10 5 0 13 5 16 11 5 7 14 4 28 -8 11 -10 17 -12 13 -5 -4 6 -2 12 3 12 6 0
11 -7 11 -15 0 -8 6 -14 13 -12 6 1 11 -3 10 -8 -1 -6 8 -11 20 -12 12 0 16 1
9 4 -6 3 -9 10 -6 15 4 6 2 8 -3 5 -6 -4 -16 0 -23 8 -11 13 -10 14 6 9 30
-11 54 -36 47 -48 -4 -6 3 -3 14 7 20 18 21 18 37 -5 9 -12 16 -17 16 -10 0 6
5 12 11 12 5 0 7 -6 3 -12 -5 -8 0 -7 11 2 15 12 17 12 10 1 -6 -11 -4 -13 8
-8 8 3 21 -1 27 -8 7 -8 17 -12 23 -8 6 3 7 1 3 -6 -6 -8 -12 -9 -20 -2 -9 8
-13 7 -13 -4 0 -8 2 -13 5 -10 3 2 14 0 25 -6 13 -7 17 -7 13 -1 -3 6 -1 14 5
18 8 4 9 3 5 -4 -4 -6 2 -19 13 -29 11 -9 18 -20 16 -23 -3 -4 8 -5 23 -2 15
3 24 1 20 -3 -11 -12 38 -59 56 -52 9 4 16 2 16 -2 0 -5 -6 -12 -12 -14 -13
-5 18 -11 37 -7 6 1 5 -4 -2 -11 -13 -13 -7 -39 9 -39 7 0 6 5 -1 13 -8 10 -7
14 4 14 8 0 13 -2 10 -5 -9 -10 17 -43 30 -38 9 3 12 0 8 -9 -3 -8 -10 -12
-17 -8 -8 4 -8 3 0 -7 7 -6 24 -13 38 -13 30 -2 36 -17 7 -17 -11 0 -23 -5
-27 -11 -4 -8 0 -9 15 -4 18 5 21 2 21 -20 0 -15 4 -24 10 -20 16 10 11 -32
-6 -49 -18 -19 -4 -22 16 -3 12 10 12 9 2 -4 -6 -9 -10 -18 -7 -21 3 -3 -3
-13 -14 -22 -14 -13 -21 -14 -27 -5 -5 8 -3 10 6 4 9 -5 11 -4 6 4 -4 6 -12 9
-17 5 -5 -3 -6 -10 -3 -16 5 -8 1 -9 -10 -5 -14 6 -17 3 -12 -8 4 -11 2 -14
-6 -9 -8 5 -9 1 -4 -12 6 -16 4 -16 -13 3 -20 21 -51 22 -51 1 0 -5 -7 -3 -15
6 -16 15 -45 12 -45 -6 0 -5 -7 -2 -16 6 -20 21 -31 20 -43 -1 -6 -10 -11 -13
-11 -8 0 6 -8 15 -18 22 -15 9 -19 8 -19 -3 0 -7 4 -11 9 -8 4 3 8 0 8 -5 0
-11 -35 -10 -46 2 -4 4 -14 7 -23 7 -12 0 -13 -2 -3 -8 7 -5 -4 -8 -28 -8 -22
0 -40 3 -40 7 0 4 -7 10 -16 13 -14 6 -15 4 -4 -9 11 -13 11 -16 -1 -13 -8 2
-18 8 -22 13 -6 6 -10 6 -14 -2 -2 -7 -9 -13 -14 -13 -6 0 -7 5 -4 10 3 6 1
10 -4 10 -6 0 -11 -5 -11 -11 0 -6 -7 -3 -16 5 -20 21 -31 20 -43 -1 -6 -10
-11 -13 -11 -8 0 6 -8 15 -18 22 -15 9 -19 8 -19 -3 0 -7 4 -11 9 -8 4 3 8 0
8 -5 0 -11 -35 -10 -46 2 -4 4 -14 7 -23 7 -12 0 -13 -2 -3 -8 7 -5 -4 -8 -28
-8 -22 0 -40 3 -40 6 0 4 -12 12 -27 19 l-28 12 23 -19 23 -18 -35 1 c-19 0
-38 3 -42 7 -3 4 3 5 15 3 13 -2 19 0 15 6 -3 6 -9 8 -12 5 -3 -3 -12 0 -20 7
-13 9 -14 9 -8 0 4 -8 2 -13 -4 -13 -6 0 -8 -4 -5 -10 9 -15 -4 -12 -21 5 -15
15 -48 10 -38 -6 3 -5 0 -9 -5 -9 -6 0 -11 4 -11 9 0 19 -35 22 -47 5 -7 -10
-13 -13 -13 -7 0 18 -28 23 -44 8 -11 -11 -16 -12 -20 -2 -5 9 -7 9 -12 0 -3
-7 -10 -13 -15 -13 -6 0 -7 5 -4 10 9 14 -8 12 -24 -2 -8 -8 -11 -8 -8 -2 4 7
-3 14 -17 16 -16 3 -23 1 -20 -7 3 -6 -6 -11 -20 -11 -14 0 -22 4 -20 8 3 4 0
9 -5 9 -26 3 -30 4 -37 11 -11 12 -24 -1 -17 -17 7 -19 -11 -19 -27 0 -7 8
-17 12 -24 8 -6 -3 -6 0 2 8 6 7 12 20 12 29 -1 12 -4 11 -17 -5 l-16 -20 7
20 c12 34 12 40 -6 39 -13 -1 -15 3 -6 27 5 16 14 27 18 24 5 -3 12 -1 15 5 4
6 3 10 -2 9 -23 -4 -25 3 -6 16 22 15 22 52 0 38 -5 -3 -7 -1 -4 5 4 5 15 8
25 5 11 -2 25 4 33 14 13 16 13 17 -3 4 -12 -9 -18 -10 -18 -2 0 6 7 14 15 17
8 4 12 11 8 18 -4 6 0 5 9 -2 14 -12 16 -10 10 10 -4 19 -3 21 9 11 10 -8 19
-9 29 -1 13 8 12 9 -2 5 -12 -4 -16 0 -15 13 1 15 4 17 16 7 12 -9 13 -9 7 1
-13 21 3 33 27 20 20 -10 21 -10 8 5 -12 15 -11 17 5 17 16 0 17 2 4 10 -13 8
-12 10 3 10 11 0 15 4 11 12 -5 7 -3 8 7 2 19 -12 40 -14 34 -4 -3 5 1 15 9
23 10 10 12 17 4 25 -7 7 0 8 26 2 31 -7 35 -6 25 6 -10 12 -9 13 5 8 12 -5
15 -2 10 10 -5 12 -2 15 10 10 9 -3 14 -10 11 -14 -3 -5 0 -12 6 -16 7 -4 9
-3 6 3 -4 6 2 22 14 34 11 13 18 19 15 12 -4 -6 -1 -15 5 -19 8 -4 9 -3 5 5
-10 16 21 26 38 12 10 -9 17 -7 27 6 13 16 12 17 -2 5 -14 -10 -18 -10 -22 3
-4 8 -3 14 1 14 25 -4 52 3 47 11 -3 6 -1 10 4 10 6 0 11 -4 11 -9 0 -5 7 -12
16 -15 10 -4 13 -2 7 7 -11 18 -13 38 -2 31 5 -3 7 -9 4 -14z m-1174 -7 c13
-16 12 -17 -3 -4 -10 7 -18 15 -18 17 0 8 8 3 21 -13z m1214 7 c-3 -5 -10 -10
-16 -10 -5 0 -9 5 -9 10 0 6 7 10 16 10 8 0 12 -4 9 -10z m324 -24 c-3 -3 -11
5 -18 17 -13 21 -12 21 5 5 10 -10 16 -20 13 -22z m-1113 -1 c-11 -8 -24 -15
-30 -15 -5 0 -1 7 10 15 10 8 24 14 29 14 6 0 1 -6 -9 -14z m-46 -30 c7 -9 8
-15 2 -15 -5 0 -12 7 -16 15 -3 8 -4 15 -2 15 2 0 9 -7 16 -15z m630 5 c0 -5
-5 -10 -11 -10 -5 0 -7 5 -4 10 3 6 8 10 11 10 2 0 4 -4 4 -10z m-636 -51 c-9
-15 -20 -10 -20 10 0 15 3 17 13 9 7 -6 10 -14 7 -19z m1916 11 c0 -5 -5 -10
-11 -10 -5 0 -7 5 -4 10 3 6 8 10 11 10 2 0 4 -4 4 -10z m-550 -20 c0 -5 -2
-10 -4 -10 -3 0 -8 5 -11 10 -3 6 -1 10 4 10 6 0 11 -4 11 -10z m-1373 -16
c-3 -4 3 -14 15 -24 17 -13 18 -17 5 -17 -9 0 -14 4 -12 8 3 4 -2 9 -10 13
-18 6 -20 26 -3 26 6 0 9 -3 5 -6z m514 -17 c-10 -9 -11 -8 -5 6 3 10 9 15 12
12 3 -3 0 -11 -7 -18z m1189 13 c0 -5 -5 -10 -11 -10 -5 0 -7 5 -4 10 3 6 8
10 11 10 2 0 4 -4 4 -10z m-260 -34 c0 -8 6 -17 13 -19 9 -4 9 -6 0 -6 -7 -1
-17 8 -23 19 -7 14 -7 20 0 20 5 0 10 -6 10 -14z m307 -46 c4 -12 3 -13 -5 -1
-5 7 -14 11 -20 7 -6 -3 -13 -2 -16 2 -3 5 4 9 16 8 12 0 23 -8 25 -16z
m-1427 -136 c0 -8 -19 -13 -24 -6 -3 5 1 9 9 9 8 0 15 -2 15 -3z m1865 -4 c-3
-5 -11 -10 -16 -10 -6 0 -7 5 -4 10 3 6 11 10 16 10 6 0 7 -4 4 -10z m-1914
-57 c-12 -20 -14 -14 -5 12 4 9 9 14 11 11 3 -2 0 -13 -6 -23z m24 -53 c-3 -5
-12 -10 -18 -10 -7 0 -6 4 3 10 19 12 23 12 15 0z m83 -75 c-3 -3 -9 2 -12 12
-6 14 -5 15 5 6 7 -7 10 -15 7 -18z m222 5 c0 -5 -5 -10 -11 -10 -5 0 -7 5 -4
10 3 6 8 10 11 10 2 0 4 -4 4 -10z m60 0 c0 -5 -4 -10 -10 -10 -5 0 -10 5 -10
10 0 6 5 10 10 10 6 0 10 -4 10 -10z m400 0 c0 -5 -4 -10 -10 -10 -5 0 -10 5
-10 10 0 6 5 10 10 10 6 0 10 -4 10 -10z m320 0 c0 -5 -4 -10 -10 -10 -5 0
-10 5 -10 10 0 6 5 10 10 10 6 0 10 -4 10 -10z m60 0 c0 -5 -5 -10 -11 -10 -5
0 -7 5 -4 10 3 6 8 10 11 10 2 0 4 -4 4 -10z m60 0 c0 -5 -5 -10 -11 -10 -5 0
-7 5 -4 10 3 6 8 10 11 10 2 0 4 -4 4 -10z m85 0 c3 -6 -1 -7 -9 -4 -18 7 -21
14 -7 14 6 0 13 -4 16 -10z m439 -78 c3 -5 -1 -9 -9 -9 -8 0 -15 4 -15 9 0 4
4 8 9 8 6 0 12 -4 15 -8z m-2030 -111 c-5 -6 -34 20 -34 30 0 5 8 1 18 -8 10
-10 17 -20 16 -22z m1643 -196 c0 -8 -4 -12 -9 -9 -5 3 -6 10 -3 15 9 13 12
11 12 -6z m-1176 -92 c13 -16 12 -17 -3 -4 -10 7 -18 15 -18 17 0 8 8 3 21
-13z m913 -25 c-3 -4 -11 -5 -19 -1 -21 7 -19 12 4 10 11 0 18 -5 15 -9z
m-770 -20 c-3 -4 -9 -8 -15 -8 -5 0 -9 4 -9 8 0 5 7 9 15 9 8 0 12 -4 9 -9z
m319 -61 c-3 -5 -10 -4 -15 1 -6 6 -7 16 -3 22 6 9 9 9 16 -1 4 -7 5 -17 2
-22z"/>
<path d="M665 1640 c-3 -6 1 -7 9 -4 18 7 21 14 7 14 -6 0 -13 -4 -16 -10z"/>
<path d="M876 1387 c3 -10 9 -15 12 -12 3 3 0 11 -7 18 -10 9 -11 8 -5 -6z"/>
<path d="M1806 1411 c-3 -5 2 -15 12 -22 15 -12 16 -12 5 2 -7 9 -10 19 -6 22
3 4 4 7 0 7 -3 0 -8 -4 -11 -9z"/>
<path d="M600 1009 c0 -5 5 -7 10 -4 6 3 10 8 10 11 0 2 -4 4 -10 4 -5 0 -10
-5 -10 -11z"/>
<path d="M1480 1211 c0 -6 4 -13 10 -16 6 -3 7 1 4 9 -7 18 -14 21 -14 7z"/>
<path d="M1633 1165 c0 -8 4 -12 9 -9 5 3 6 10 3 15 -9 13 -12 11 -12 -6z"/>
<path d="M770 706 c0 -2 7 -9 15 -16 13 -11 14 -10 9 4 -5 14 -24 23 -24 12z"/>
<path d="M1326 692 c-2 -4 4 -8 14 -8 10 0 16 4 14 8 -3 4 -9 8 -14 8 -5 0
-11 -4 -14 -8z"/>
<path d="M1646 692 c-2 -4 4 -8 14 -8 10 0 16 4 14 8 -3 4 -9 8 -14 8 -5 0
-11 -4 -14 -8z"/>
<path d="M1286 2638 c3 -4 9 -8 15 -8 5 0 9 4 9 8 0 5 -7 9 -15 9 -8 0 -12 -4
-9 -9z"/>
<path d="M2510 2095 c-11 -13 -10 -14 4 -9 9 3 16 10 16 15 0 13 -6 11 -20 -6z"/>
<path d="M170 1909 c0 -5 5 -7 10 -4 6 3 10 8 10 11 0 2 -4 4 -10 4 -5 0 -10
-5 -10 -11z"/>
<path d="M2705 1660 c6 -8 10 -19 10 -24 0 -5 6 -10 13 -12 7 -1 8 0 2 3 -5 2
-8 8 -5 13 3 4 -3 14 -12 21 -15 12 -16 12 -8 -1z"/>
<path d="M73 1107 c13 -11 15 -16 5 -20 -7 -2 -10 -7 -7 -11 3 -4 12 0 18 8
10 12 8 17 -11 26 -21 10 -21 10 -5 -3z"/>
<path d="M2605 820 c-3 -5 -2 -10 4 -10 5 0 13 5 16 10 3 6 2 10 -4 10 -5 0
-13 -4 -16 -10z"/>
<path d="M181 808 c9 -7 14 -19 12 -25 -6 -18 4 -16 11 2 3 9 -3 19 -17 25
-19 10 -20 9 -6 -2z"/>
<path d="M370 540 c0 -5 5 -10 11 -10 5 0 7 5 4 10 -3 6 -8 10 -11 10 -2 0 -4
-4 -4 -10z"/>
<path d="M2255 401 c-3 -5 -2 -12 3 -15 5 -3 9 1 9 9 0 17 -3 19 -12 6z"/>
<path d="M2167 336 c-4 -10 -1 -13 8 -9 8 3 12 9 9 14 -7 12 -11 11 -17 -5z"/>
</g>
</svg>
